<svg width="16" height="16" viewBox="0 0 16 16" fill="none" xmlns="http://www.w3.org/2000/svg">
<g clip-path="url(#clip0_3_61)">
<rect width="16" height="16" rx="3" fill="white"/>
<path d="M8.2007 15.563C7.87179 15.619 7.41992 15.6161 7.02257 15.556C6.30695 15.4474 5.67086 15.2496 5.0357 14.9379C4.45273 14.6516 3.98101 14.3261 3.61179 13.9554C3.35148 13.6941 3.20414 13.4916 3.07539 13.2193C2.96757 12.9913 2.93867 12.8724 2.92929 12.6169C2.92242 12.4271 2.92586 12.3796 2.95461 12.266C2.99429 12.1086 3.05601 11.9725 3.13367 11.8716C3.16507 11.8307 3.1907 11.7932 3.1907 11.7882C3.1907 11.783 3.15273 11.7216 3.10632 11.6515C2.91851 11.368 2.76554 11.0233 2.66836 10.6647C2.6382 10.553 2.58164 10.2893 2.54273 10.0788C2.50382 9.86833 2.46461 9.66786 2.45539 9.63348C2.36586 9.29801 2.24054 9.02004 2.05382 8.74286C1.8832 8.48973 1.76961 8.35254 1.47492 8.04364C1.10882 7.65973 0.947887 7.40395 0.8532 7.05536C0.815856 6.9177 0.810699 6.8702 0.810074 6.65692C0.809293 6.3777 0.837106 6.24161 0.939762 6.02223C1.17398 5.52239 1.63289 5.19864 2.18648 5.1427C2.74351 5.08645 3.2707 5.29723 3.73179 5.76067C3.90742 5.93708 3.99148 6.0402 4.30195 6.45989C4.43617 6.64129 4.55554 6.78973 4.56726 6.78973C4.59507 6.78973 4.77586 6.42801 4.85226 6.21942C4.97461 5.88551 5.07382 5.40723 5.12148 4.92301C5.15336 4.59739 5.15273 3.94786 5.11976 3.31317C5.09054 2.74958 5.0957 2.3527 5.13476 2.13348C5.31461 1.12676 6.00054 0.449263 6.8782 0.411607C7.60601 0.380513 8.18648 0.794888 8.41461 1.50848C8.49586 1.7627 8.52304 1.96895 8.52242 2.32598C8.52211 2.49192 8.52476 2.62489 8.52851 2.62129C8.53211 2.6177 8.58414 2.51786 8.64414 2.39958C9.00711 1.68442 9.44695 1.26161 9.99289 1.10333C10.6566 0.910982 11.3655 1.13364 11.7179 1.64504C11.8901 1.89489 11.9702 2.1302 11.9829 2.42254C11.9876 2.53129 11.9835 2.6802 11.9738 2.75848C11.9437 2.99973 11.8487 3.32645 11.7199 3.63192C11.6949 3.69114 11.6769 3.74208 11.6799 3.74504C11.6829 3.74801 11.7318 3.71348 11.7887 3.66817C11.9985 3.50098 12.2549 3.37161 12.5168 3.30114C12.6524 3.26458 12.6951 3.26051 12.9485 3.26051C13.2098 3.26036 13.2396 3.26348 13.3671 3.30254C13.8646 3.45504 14.2021 3.79442 14.3338 4.27411C14.3837 4.45551 14.3841 4.82442 14.3348 5.02129C14.2407 5.39583 14.0407 5.76395 13.7021 6.18567C13.6515 6.24864 13.6126 6.30286 13.6157 6.30583C13.6187 6.30895 13.6527 6.30411 13.6912 6.2952C13.8016 6.26958 14.1468 6.28864 14.2818 6.3277C14.7224 6.45536 15.0296 6.7752 15.1548 7.23692C15.1921 7.37426 15.1923 7.71598 15.1552 7.87067C15.0455 8.32864 14.7685 8.77348 14.3298 9.19629C14.1421 9.37708 13.9463 9.54083 13.3927 9.98004C12.7676 10.4761 12.5377 10.7111 12.4019 10.9929C12.3648 11.0702 12.2869 11.2636 12.2293 11.4225C11.9674 12.1435 11.7002 12.6385 11.306 13.1333C10.8563 13.6977 10.2491 14.164 9.75898 14.3211L9.63195 14.3619L9.62164 14.4397C9.60726 14.5482 9.53211 14.736 9.45679 14.8515C9.38023 14.9691 9.18804 15.1582 9.05195 15.2499C8.83773 15.3943 8.53211 15.5066 8.2007 15.563ZM7.38601 15.0215C7.55836 15.0358 7.88054 15.0294 8.03961 15.0085C8.57711 14.938 8.94461 14.7104 9.04179 14.3879L9.06242 14.3193L8.92726 14.2779C8.78586 14.2346 8.63492 14.1533 8.60601 14.1052C8.59242 14.0822 8.59617 14.071 8.62601 14.0466C8.65476 14.023 8.68726 14.0163 8.77257 14.0163C8.90179 14.0163 9.21961 13.9549 9.39023 13.8968C9.96117 13.7025 10.519 13.2665 10.9713 12.6607C11.2688 12.2622 11.451 11.9238 11.6735 11.3565C11.8615 10.8769 11.9734 10.651 12.1179 10.4591C12.2705 10.2565 12.6215 9.9177 12.9326 9.67254C13.7665 9.01536 13.8871 8.91395 14.1048 8.68598C14.4366 8.33848 14.6223 8.01098 14.6752 7.67926C14.7271 7.35426 14.5638 7.01661 14.2869 6.87692C14.0009 6.73254 13.6368 6.75536 13.2844 6.93989C12.9369 7.12176 12.5288 7.49536 11.7621 8.33301C11.6694 8.43411 11.5809 8.52379 11.5651 8.53223C11.5159 8.55864 11.4354 8.54942 11.389 8.51223C11.3237 8.46004 11.3163 8.37223 11.3676 8.26004C11.4862 8.00129 11.8105 7.59083 12.5734 6.73504C13.423 5.78176 13.701 5.39067 13.8252 4.97364C13.883 4.77973 13.886 4.54129 13.8327 4.37833C13.7588 4.15192 13.6066 3.97145 13.3993 3.86426C13.221 3.77208 13.0893 3.74458 12.8741 3.75426C12.6704 3.76364 12.5262 3.8052 12.3212 3.91395C12.1255 4.0177 11.9669 4.14192 11.7532 4.35864C11.4774 4.63833 11.2513 4.93489 10.929 5.43926C10.7563 5.70942 10.3768 6.33848 10.1688 6.69942L10.0318 6.93739L10.2613 7.15989C10.5734 7.46254 10.8215 7.77567 10.9135 7.98317C10.9473 8.05911 10.9334 8.12567 10.8838 8.12567C10.8693 8.12567 10.7232 7.99254 10.5591 7.82989C10.3952 7.66723 10.2154 7.49504 10.1594 7.44754C9.85054 7.18426 9.40679 6.87176 9.05789 6.67161C8.69664 6.46442 8.13273 6.21364 7.91054 6.16145C7.85414 6.14817 7.70945 6.10926 7.58914 6.07489C7.28414 5.98801 7.21117 5.97333 6.97976 5.95208C6.86804 5.94192 6.76086 5.9277 6.74148 5.92067C6.7032 5.90645 6.69461 5.85801 6.72586 5.83208C6.77539 5.79129 6.94242 5.76348 7.18695 5.7552C7.42961 5.74692 7.44148 5.74504 7.44867 5.71348C7.45289 5.6952 7.48757 5.5502 7.52586 5.39129C7.85476 4.02551 8.04445 2.79848 8.01054 2.25848C7.97867 1.75239 7.86976 1.44786 7.63601 1.21129C7.44632 1.01926 7.23039 0.934263 6.93289 0.934263C6.62507 0.934263 6.36804 1.03708 6.1382 1.25208C5.93804 1.43942 5.81132 1.64895 5.71632 1.94989C5.61601 2.26723 5.59867 2.54676 5.63695 3.22723C5.67273 3.86426 5.67336 4.57239 5.63836 4.92254C5.54851 5.81973 5.31601 6.58754 4.98101 7.09333C4.93304 7.16583 4.89382 7.23051 4.89382 7.23723C4.89382 7.26083 5.07554 7.37208 5.29867 7.48504C5.86445 7.77161 6.23914 8.11473 6.5207 8.60395C6.71554 8.94254 6.86507 9.46223 6.79445 9.55536C6.77336 9.58317 6.7682 9.58395 6.74773 9.56317C6.73507 9.5502 6.7057 9.49411 6.68242 9.43817C6.52539 9.06083 6.29554 8.71708 6.0032 8.4227C5.70929 8.12676 5.38242 7.90989 5.02664 7.77489C4.55523 7.59598 4.45726 7.51161 3.98273 6.87567C3.45992 6.1752 3.23476 5.94583 2.90867 5.78161C2.69523 5.67411 2.58757 5.64911 2.33914 5.64911C2.15039 5.64911 2.10539 5.65411 2.01101 5.68598C1.54804 5.84239 1.27445 6.23989 1.30539 6.71161C1.31632 6.87801 1.34445 6.97989 1.42601 7.14911C1.50804 7.31895 1.60757 7.44583 1.89132 7.74161C2.29945 8.16676 2.52976 8.47817 2.72195 8.86458C2.88804 9.19848 2.95586 9.42364 3.06461 10.0024C3.14476 10.4296 3.18992 10.6038 3.27898 10.8288C3.62132 11.6941 4.30882 12.3299 5.22101 12.6246C5.31929 12.6563 5.40211 12.6897 5.40523 12.699C5.40836 12.7083 5.39851 12.728 5.38351 12.7432C5.35929 12.7672 5.33195 12.7696 5.14461 12.7624C4.68086 12.7447 4.22632 12.589 3.78211 12.2954C3.67992 12.2279 3.59257 12.1725 3.58789 12.1725C3.58336 12.1725 3.55742 12.22 3.53007 12.278C3.48461 12.3746 3.48054 12.396 3.48195 12.5319C3.48382 12.7118 3.52851 12.8625 3.63992 13.066C4.07507 13.8602 5.42007 14.6541 6.80789 14.9357C6.95976 14.9666 7.25945 15.011 7.38601 15.0215ZM9.46586 6.53942C9.57773 6.61301 9.62382 6.63583 9.63273 6.62161C9.65523 6.58614 10.3932 5.20208 10.6012 4.80536C11.0582 3.93317 11.296 3.38708 11.4137 2.93911C11.4549 2.78192 11.4612 2.73114 11.4618 2.54754C11.4624 2.35942 11.4579 2.32301 11.4205 2.21036C11.3669 2.04926 11.2855 1.92426 11.1544 1.80208C10.9701 1.6302 10.7469 1.54817 10.4627 1.5477C9.88929 1.54692 9.44617 1.91504 9.0282 2.73989C8.82007 3.15051 8.59586 3.70676 8.37523 4.36004C8.25023 4.73051 7.9057 5.8302 7.91257 5.83708C7.91523 5.83958 7.96273 5.85333 8.0182 5.8677C8.40507 5.96786 9.05679 6.2702 9.46586 6.53942ZM1.14539 4.28051C1.07086 4.30442 1.05039 4.30223 0.972262 4.26239C0.829918 4.18973 0.808512 4.10442 0.869293 3.85254C1.04851 3.10848 1.60117 2.42708 2.3157 2.06879C2.62648 1.91286 2.86789 1.85817 2.96726 1.92083C3.07164 1.98676 3.10429 2.14551 3.03601 2.25614C2.99461 2.32286 2.9632 2.34129 2.79273 2.39848C2.47242 2.50598 2.09367 2.75723 1.86679 3.01286C1.5982 3.31567 1.38039 3.73176 1.3157 4.06536C1.2957 4.16848 1.22804 4.25379 1.14539 4.28051ZM12.6126 14.9019C12.4734 14.9632 12.4529 14.9644 12.3619 14.9186C12.2316 14.8529 12.186 14.6799 12.2707 14.5722C12.2874 14.5508 12.3694 14.4975 12.453 14.454C12.8334 14.2547 13.1879 13.9336 13.4282 13.571C13.5459 13.3933 13.6905 13.1021 13.7359 12.9521C13.7913 12.7679 13.826 12.7091 13.9007 12.673C13.9818 12.6338 14.039 12.6333 14.1232 12.6716C14.2918 12.7482 14.2801 12.9397 14.0787 13.3974C13.8012 14.028 13.2024 14.6424 12.6126 14.9019ZM12.1202 13.8382C11.9399 13.9272 11.8469 13.9219 11.748 13.8168C11.7015 13.7672 11.679 13.6746 11.6966 13.6044C11.713 13.539 11.7823 13.4721 11.8837 13.4236C12.0202 13.3585 12.2149 13.2091 12.3454 13.0694C12.5963 12.8007 12.8101 12.4022 12.8809 12.071C12.9166 11.904 12.9821 11.8446 13.1309 11.8444C13.2387 11.8444 13.2998 11.8874 13.3394 11.9916C13.3637 12.0549 13.3637 12.0688 13.3404 12.1825C13.3265 12.25 13.2971 12.3616 13.2749 12.4304C13.2151 12.6165 13.0335 12.9732 12.9138 13.1396C12.712 13.4204 12.3873 13.7063 12.1202 13.8382ZM2.28132 4.57254C2.20882 4.6102 2.10992 4.60051 2.03836 4.54864C1.96039 4.49208 1.93304 4.41942 1.94664 4.30458C1.95679 4.21754 2.03195 3.98895 2.08507 3.88348C2.26476 3.52629 2.63007 3.17723 2.98445 3.02364C3.27992 2.89551 3.42007 2.89911 3.50382 3.03661C3.54539 3.10489 3.54445 3.22286 3.50179 3.29192C3.46351 3.35395 3.44211 3.36676 3.27867 3.42458C2.87429 3.5677 2.5257 3.94614 2.42617 4.3502C2.39492 4.47708 2.35914 4.53192 2.28132 4.57254Z" fill="#104470"/>
</g>
<defs>
<clipPath id="clip0_3_61">
<rect width="16" height="16" fill="white"/>
</clipPath>
</defs>
</svg>
